<svg xmlns="http://www.w3.org/2000/svg" viewBox="0 0 200 200" width="200" height="200">
  <circle cx="100" cy="100" r="90" fill="#f5f0e6"/>

  <path d="M 50 50 
           C 50 80, 80 90, 96 100 
           C 80 110, 50 120, 50 150 
           L 150 150 
           C 150 120, 120 110, 104 100 
           C 120 90, 150 80, 150 50 
           Z" 
        fill="#000000"/>

  <g fill="#f5f0e6">
    <path d="M 55 145 
             C 70 125, 130 125, 145 145 
             L 100 145 Z" 
          opacity="0.9"/>
    
    <path d="M 55 55 
             L 145 55 
             C 140 70, 120 85, 100 95 
             C 80 85, 60 70, 55 55 
             Z" 
          opacity="0.9"/>
    
    <path d="M 98 96 
             L 102 96 
             L 100 125 Z" 
          opacity="0.8"/>
  </g>

  <ellipse cx="65" cy="70" rx="25" ry="15" fill="#ffffff" opacity="0.5" transform="rotate(-35 65 70)"/>
  <ellipse cx="75" cy="80" rx="10" ry="6" fill="#ffffff" opacity="0.3" transform="rotate(-35 75 80)"/>

</svg>
